<mxfile host="65bd71144e">
    <diagram id="S4evBD7ipjabHxQ9gMig" name="Page-1">
<<<<<<< HEAD
        <mxGraphModel dx="780" dy="496" grid="1" gridSize="10" guides="1" tooltips="1" connect="1" arrows="1" fold="1" page="1" pageScale="1" pageWidth="3300" pageHeight="4681" math="0" shadow="0">
=======
        <mxGraphModel dx="987" dy="667" grid="1" gridSize="10" guides="1" tooltips="1" connect="1" arrows="1" fold="1" page="1" pageScale="1" pageWidth="3300" pageHeight="4681" math="0" shadow="0">
>>>>>>> origin/main
            <root>
                <mxCell id="0"/>
                <mxCell id="1" parent="0"/>
                <mxCell id="2" value="Context : You are a techer that is managing students, students are doing a project using programming language , student do not have a huge backgorund with programming so you will have to be very explicit , you have to answer to all of their question&amp;nbsp;" style="rounded=0;whiteSpace=wrap;html=1;" parent="1" vertex="1">
<<<<<<< HEAD
                    <mxGeometry x="40" y="40" width="210" height="100" as="geometry"/>
=======
                    <mxGeometry x="40" y="20" width="210" height="100" as="geometry"/>
>>>>>>> origin/main
                </mxCell>
                <mxCell id="3" value="You have previously talk to the student : here is your conversation so far :&amp;nbsp;&lt;br&gt;[Insert History] OR&lt;br&gt;This is the first message he sent you&amp;nbsp;" style="rounded=0;whiteSpace=wrap;html=1;" parent="1" vertex="1">
                    <mxGeometry x="40" y="160" width="210" height="90" as="geometry"/>
                </mxCell>
                <mxCell id="4" value="Here is the new Question he is asking you : [Student question ] , try to answer it with the best possible explanation&amp;nbsp;" style="rounded=0;whiteSpace=wrap;html=1;" parent="1" vertex="1">
<<<<<<< HEAD
                    <mxGeometry x="40" y="289" width="210" height="60" as="geometry"/>
=======
                    <mxGeometry x="40" y="290" width="210" height="60" as="geometry"/>
>>>>>>> origin/main
                </mxCell>
                <mxCell id="5" value="First Round GPT" style="rounded=0;whiteSpace=wrap;html=1;" parent="1" vertex="1">
                    <mxGeometry x="410" y="180" width="120" height="60" as="geometry"/>
                </mxCell>
                <mxCell id="6" value="Hello [STUDENT NAME] , i've looked at your problem,&amp;nbsp;" style="rounded=0;whiteSpace=wrap;html=1;" parent="1" vertex="1">
<<<<<<< HEAD
                    <mxGeometry x="670" y="60" width="230" height="60" as="geometry"/>
                </mxCell>
                <mxCell id="7" value="I think the solution could be [answer ]&lt;br&gt;Don't hesitate if you have any orther questions&amp;nbsp;" style="rounded=0;whiteSpace=wrap;html=1;" parent="1" vertex="1">
                    <mxGeometry x="690" y="170" width="230" height="60" as="geometry"/>
                </mxCell>
                <mxCell id="8" value="I don't think i can answer your question given what you provided, can you be more explicit about the problem you are having and maybe add as much context as possible&amp;nbsp;" style="rounded=0;whiteSpace=wrap;html=1;" parent="1" vertex="1">
                    <mxGeometry x="690" y="279" width="230" height="80" as="geometry"/>
=======
                    <mxGeometry x="690" y="30" width="230" height="60" as="geometry"/>
                </mxCell>
                <mxCell id="7" value="I think the solution could be [answer ]&lt;br&gt;Don't hesitate if you have any orther questions&amp;nbsp;" style="rounded=0;whiteSpace=wrap;html=1;" parent="1" vertex="1">
                    <mxGeometry x="690" y="160" width="230" height="60" as="geometry"/>
                </mxCell>
                <mxCell id="8" value="I don't think i can answer your question given what you provided, can you be more explicit about the problem you are having and maybe add as much context as possible&amp;nbsp;" style="rounded=0;whiteSpace=wrap;html=1;" parent="1" vertex="1">
                    <mxGeometry x="690" y="280" width="230" height="80" as="geometry"/>
>>>>>>> origin/main
                </mxCell>
                <mxCell id="10" value="" style="endArrow=classic;html=1;exitX=1;exitY=0.5;exitDx=0;exitDy=0;entryX=0;entryY=0.5;entryDx=0;entryDy=0;" parent="1" source="2" target="5" edge="1">
                    <mxGeometry width="50" height="50" relative="1" as="geometry">
                        <mxPoint x="450" y="220" as="sourcePoint"/>
                        <mxPoint x="500" y="170" as="targetPoint"/>
                    </mxGeometry>
                </mxCell>
                <mxCell id="11" value="" style="endArrow=classic;html=1;exitX=1;exitY=0.5;exitDx=0;exitDy=0;" parent="1" source="3" edge="1">
                    <mxGeometry width="50" height="50" relative="1" as="geometry">
                        <mxPoint x="260" y="120" as="sourcePoint"/>
                        <mxPoint x="410" y="210" as="targetPoint"/>
<<<<<<< HEAD
                        <Array as="points">
                            <mxPoint x="400" y="190"/>
                        </Array>
=======
>>>>>>> origin/main
                    </mxGeometry>
                </mxCell>
                <mxCell id="12" value="" style="endArrow=classic;html=1;exitX=1;exitY=0.5;exitDx=0;exitDy=0;entryX=-0.025;entryY=0.617;entryDx=0;entryDy=0;entryPerimeter=0;" parent="1" source="4" target="5" edge="1">
                    <mxGeometry width="50" height="50" relative="1" as="geometry">
                        <mxPoint x="270" y="320" as="sourcePoint"/>
                        <mxPoint x="430" y="330" as="targetPoint"/>
                    </mxGeometry>
                </mxCell>
                <mxCell id="13" value="" style="endArrow=classic;html=1;exitX=1;exitY=0.5;exitDx=0;exitDy=0;entryX=0;entryY=0.5;entryDx=0;entryDy=0;" parent="1" target="6" edge="1">
                    <mxGeometry width="50" height="50" relative="1" as="geometry">
                        <mxPoint x="530" y="210" as="sourcePoint"/>
                        <mxPoint x="690" y="310" as="targetPoint"/>
                    </mxGeometry>
                </mxCell>
                <mxCell id="14" value="" style="endArrow=classic;html=1;exitX=1.017;exitY=0.633;exitDx=0;exitDy=0;entryX=0;entryY=0.75;entryDx=0;entryDy=0;exitPerimeter=0;" parent="1" source="5" target="7" edge="1">
                    <mxGeometry width="50" height="50" relative="1" as="geometry">
                        <mxPoint x="540" y="220" as="sourcePoint"/>
                        <mxPoint x="690" y="120" as="targetPoint"/>
                    </mxGeometry>
                </mxCell>
                <mxCell id="15" value="" style="endArrow=classic;html=1;exitX=1;exitY=0.75;exitDx=0;exitDy=0;entryX=0;entryY=0.5;entryDx=0;entryDy=0;" parent="1" source="5" target="8" edge="1">
                    <mxGeometry width="50" height="50" relative="1" as="geometry">
                        <mxPoint x="520" y="270" as="sourcePoint"/>
                        <mxPoint x="667.96" y="277.02" as="targetPoint"/>
                    </mxGeometry>
                </mxCell>
                <mxCell id="16" value="OR" style="text;html=1;align=center;verticalAlign=middle;resizable=0;points=[];autosize=1;strokeColor=none;fillColor=none;" parent="1" vertex="1">
                    <mxGeometry x="540" y="220" width="40" height="30" as="geometry"/>
                </mxCell>
            </root>
        </mxGraphModel>
    </diagram>
</mxfile>